<mxfile host="65bd71144e">
    <diagram id="PjX6TMRhEjkoH-ikMJ8E" name="Page-1">
        <mxGraphModel dx="1954" dy="1142" grid="1" gridSize="10" guides="1" tooltips="1" connect="1" arrows="1" fold="1" page="1" pageScale="1" pageWidth="1100" pageHeight="850" math="0" shadow="0">
            <root>
                <mxCell id="0"/>
                <mxCell id="1" parent="0"/>
                <mxCell id="38" value="" style="edgeStyle=none;html=1;entryX=-0.012;entryY=0.886;entryDx=0;entryDy=0;entryPerimeter=0;" parent="1" source="2" target="152" edge="1">
                    <mxGeometry relative="1" as="geometry"/>
                </mxCell>
                <mxCell id="40" style="edgeStyle=none;html=1;entryX=0.012;entryY=0.418;entryDx=0;entryDy=0;entryPerimeter=0;" parent="1" source="2" target="153" edge="1">
                    <mxGeometry relative="1" as="geometry"/>
                </mxCell>
                <mxCell id="41" style="edgeStyle=none;html=1;entryX=0;entryY=0;entryDx=0;entryDy=0;" parent="1" source="2" target="154" edge="1">
                    <mxGeometry relative="1" as="geometry"/>
                </mxCell>
                <mxCell id="78" style="edgeStyle=none;html=1;" parent="1" source="2" edge="1">
                    <mxGeometry relative="1" as="geometry">
                        <mxPoint x="67.75" y="758" as="targetPoint"/>
                    </mxGeometry>
                </mxCell>
                <mxCell id="2" value="" style="aspect=fixed;html=1;points=[];align=center;image;fontSize=12;image=img/lib/azure2/integration/API_Management_Services.svg;" parent="1" vertex="1">
                    <mxGeometry x="27.75" y="294" width="65" height="60" as="geometry"/>
                </mxCell>
                <mxCell id="54" style="edgeStyle=none;html=1;" parent="1" source="9" target="52" edge="1">
                    <mxGeometry relative="1" as="geometry"/>
                </mxCell>
                <mxCell id="151" style="edgeStyle=none;html=1;entryX=-0.011;entryY=0.365;entryDx=0;entryDy=0;entryPerimeter=0;" parent="1" source="9" target="69" edge="1">
                    <mxGeometry relative="1" as="geometry"/>
                </mxCell>
                <mxCell id="9" value="" style="aspect=fixed;html=1;points=[];align=center;image;fontSize=12;image=img/lib/azure2/general/Workflow.svg;" parent="1" vertex="1">
                    <mxGeometry x="731.75" y="278.5" width="68" height="70" as="geometry"/>
                </mxCell>
                <mxCell id="17" value="" style="aspect=fixed;html=1;points=[];align=center;image;fontSize=12;image=img/lib/azure2/general/Tags.svg;" parent="1" vertex="1">
                    <mxGeometry x="203.9" y="509" width="13.85" height="15" as="geometry"/>
                </mxCell>
                <mxCell id="42" style="edgeStyle=none;html=1;entryX=-0.022;entryY=0.393;entryDx=0;entryDy=0;entryPerimeter=0;exitX=1;exitY=0.75;exitDx=0;exitDy=0;" parent="1" source="152" target="145" edge="1">
                    <mxGeometry relative="1" as="geometry">
                        <mxPoint x="419.8380000000002" y="278.06999999999994" as="targetPoint"/>
                    </mxGeometry>
                </mxCell>
                <mxCell id="15" value="" style="aspect=fixed;html=1;points=[];align=center;image;fontSize=12;image=img/lib/azure2/devops/Application_Insights.svg;" parent="1" vertex="1">
                    <mxGeometry x="217.75" y="134" width="44" height="63" as="geometry"/>
                </mxCell>
                <mxCell id="47" style="edgeStyle=none;html=1;exitX=0.982;exitY=0.438;exitDx=0;exitDy=0;exitPerimeter=0;" parent="1" source="153" target="145" edge="1">
                    <mxGeometry relative="1" as="geometry">
                        <mxPoint x="267.75" y="327" as="sourcePoint"/>
                        <mxPoint x="507.75" y="327" as="targetPoint"/>
                    </mxGeometry>
                </mxCell>
                <mxCell id="34" value="" style="aspect=fixed;html=1;points=[];align=center;image;fontSize=12;image=img/lib/azure2/devops/Application_Insights.svg;" parent="1" vertex="1">
                    <mxGeometry x="217.75" y="304" width="44" height="63" as="geometry"/>
                </mxCell>
                <mxCell id="44" style="edgeStyle=none;html=1;exitX=1.012;exitY=0.377;exitDx=0;exitDy=0;exitPerimeter=0;" parent="1" source="154" edge="1">
                    <mxGeometry relative="1" as="geometry">
                        <mxPoint x="517.75" y="338" as="targetPoint"/>
                    </mxGeometry>
                </mxCell>
                <mxCell id="35" value="" style="aspect=fixed;html=1;points=[];align=center;image;fontSize=12;image=img/lib/azure2/devops/Application_Insights.svg;" parent="1" vertex="1">
                    <mxGeometry x="217.75" y="461" width="44" height="63" as="geometry"/>
                </mxCell>
                <mxCell id="79" style="edgeStyle=none;html=1;" parent="1" source="52" edge="1">
                    <mxGeometry relative="1" as="geometry">
                        <mxPoint x="67.75" y="768" as="targetPoint"/>
                    </mxGeometry>
                </mxCell>
                <mxCell id="52" value="" style="aspect=fixed;html=1;points=[];align=center;image;fontSize=12;image=img/lib/azure2/general/Table.svg;shadow=0;fillColor=none;" parent="1" vertex="1">
                    <mxGeometry x="731.75" y="738" width="64" height="52" as="geometry"/>
                </mxCell>
                <mxCell id="57" value="" style="aspect=fixed;html=1;points=[];align=center;image;fontSize=12;image=img/lib/azure2/general/Tags.svg;" parent="1" vertex="1">
                    <mxGeometry x="203.9" y="197" width="13.85" height="15" as="geometry"/>
                </mxCell>
                <mxCell id="58" value="" style="aspect=fixed;html=1;points=[];align=center;image;fontSize=12;image=img/lib/azure2/general/Tags.svg;" parent="1" vertex="1">
                    <mxGeometry x="203.9" y="348.5" width="13.85" height="15" as="geometry"/>
                </mxCell>
                <mxCell id="60" value="" style="aspect=fixed;html=1;points=[];align=center;image;fontSize=12;image=img/lib/azure2/iot/Function_Apps.svg;shadow=0;fillColor=none;" parent="1" vertex="1">
                    <mxGeometry x="916.75" y="144" width="68" height="60" as="geometry"/>
                </mxCell>
                <mxCell id="61" value="" style="aspect=fixed;html=1;points=[];align=center;image;fontSize=12;image=img/lib/azure2/iot/Logic_Apps.svg;shadow=0;fillColor=none;" parent="1" vertex="1">
                    <mxGeometry x="918.75" y="264" width="67" height="52" as="geometry"/>
                </mxCell>
                <mxCell id="63" value="" style="aspect=fixed;html=1;points=[];align=center;image;fontSize=12;image=img/lib/azure2/compute/App_Services.svg;shadow=0;fillColor=none;" parent="1" vertex="1">
                    <mxGeometry x="920.25" y="389.5" width="64" height="64" as="geometry"/>
                </mxCell>
                <mxCell id="65" value="" style="image;image=img/lib/atlassian/Jira_Service_Desk_Logo.svg;shadow=0;fillColor=none;" parent="1" vertex="1">
                    <mxGeometry x="916.75" y="504" width="59" height="76" as="geometry"/>
                </mxCell>
                <mxCell id="67" value="" style="shape=image;verticalLabelPosition=bottom;labelBackgroundColor=#ffffff;verticalAlign=top;aspect=fixed;imageAspect=0;image=https://www.pngfind.com/pngs/m/618-6187399_servicenow-logo-png-service-now-logo-png-transparent.png;" parent="1" vertex="1">
                    <mxGeometry x="897.75" y="626.5" width="133.71" height="27" as="geometry"/>
                </mxCell>
                <mxCell id="69" value="" style="whiteSpace=wrap;html=1;shadow=0;fillColor=none;" parent="1" vertex="1">
                    <mxGeometry x="877.75" y="118" width="200" height="544" as="geometry"/>
                </mxCell>
                <mxCell id="111" value="" style="edgeStyle=none;html=1;entryX=0;entryY=1;entryDx=0;entryDy=0;" parent="1" source="115" target="161" edge="1">
                    <mxGeometry relative="1" as="geometry"/>
                </mxCell>
                <mxCell id="112" style="edgeStyle=none;html=1;entryX=-0.013;entryY=0.408;entryDx=0;entryDy=0;entryPerimeter=0;" parent="1" source="115" target="163" edge="1">
                    <mxGeometry relative="1" as="geometry"/>
                </mxCell>
                <mxCell id="113" style="edgeStyle=none;html=1;entryX=0;entryY=0;entryDx=0;entryDy=0;" parent="1" source="115" target="164" edge="1">
                    <mxGeometry relative="1" as="geometry"/>
                </mxCell>
                <mxCell id="205" style="edgeStyle=none;html=1;entryX=0;entryY=0;entryDx=0;entryDy=0;" parent="1" source="115" target="199" edge="1">
                    <mxGeometry relative="1" as="geometry"/>
                </mxCell>
                <mxCell id="115" value="" style="aspect=fixed;html=1;points=[];align=center;image;fontSize=12;image=img/lib/azure2/integration/API_Management_Services.svg;" parent="1" vertex="1">
                    <mxGeometry x="27.75" y="1203" width="65" height="60" as="geometry"/>
                </mxCell>
                <mxCell id="122" value="" style="aspect=fixed;html=1;points=[];align=center;image;fontSize=12;image=img/lib/azure2/general/Tags.svg;" parent="1" vertex="1">
                    <mxGeometry x="203.9" y="1418" width="13.85" height="15" as="geometry"/>
                </mxCell>
                <mxCell id="126" style="edgeStyle=none;html=1;entryX=-0.021;entryY=0.685;entryDx=0;entryDy=0;entryPerimeter=0;startArrow=none;" parent="1" source="161" target="143" edge="1">
                    <mxGeometry relative="1" as="geometry">
                        <mxPoint x="442.02199999999993" y="1076.1399999999999" as="targetPoint"/>
                    </mxGeometry>
                </mxCell>
                <mxCell id="127" value="" style="aspect=fixed;html=1;points=[];align=center;image;fontSize=12;image=img/lib/azure2/devops/Application_Insights.svg;" parent="1" vertex="1">
                    <mxGeometry x="217.75" y="1043" width="44" height="63" as="geometry"/>
                </mxCell>
                <mxCell id="129" value="" style="aspect=fixed;html=1;points=[];align=center;image;fontSize=12;image=img/lib/azure2/devops/Application_Insights.svg;" parent="1" vertex="1">
                    <mxGeometry x="217.75" y="1213" width="44" height="63" as="geometry"/>
                </mxCell>
                <mxCell id="130" style="edgeStyle=none;html=1;exitX=1;exitY=0.5;exitDx=0;exitDy=0;" parent="1" source="164" edge="1">
                    <mxGeometry relative="1" as="geometry">
                        <mxPoint x="510" y="1403" as="targetPoint"/>
                    </mxGeometry>
                </mxCell>
                <mxCell id="131" value="" style="aspect=fixed;html=1;points=[];align=center;image;fontSize=12;image=img/lib/azure2/devops/Application_Insights.svg;" parent="1" vertex="1">
                    <mxGeometry x="217.75" y="1370" width="44" height="63" as="geometry"/>
                </mxCell>
                <mxCell id="134" value="" style="aspect=fixed;html=1;points=[];align=center;image;fontSize=12;image=img/lib/azure2/general/Tags.svg;" parent="1" vertex="1">
                    <mxGeometry x="203.9" y="1106" width="13.85" height="15" as="geometry"/>
                </mxCell>
                <mxCell id="135" value="" style="aspect=fixed;html=1;points=[];align=center;image;fontSize=12;image=img/lib/azure2/general/Tags.svg;" parent="1" vertex="1">
                    <mxGeometry x="203.9" y="1257.5" width="13.85" height="15" as="geometry"/>
                </mxCell>
                <mxCell id="136" value="" style="aspect=fixed;html=1;points=[];align=center;image;fontSize=12;image=img/lib/azure2/iot/Function_Apps.svg;shadow=0;fillColor=none;" parent="1" vertex="1">
                    <mxGeometry x="916.75" y="1053" width="68" height="60" as="geometry"/>
                </mxCell>
                <mxCell id="137" value="" style="aspect=fixed;html=1;points=[];align=center;image;fontSize=12;image=img/lib/azure2/iot/Logic_Apps.svg;shadow=0;fillColor=none;" parent="1" vertex="1">
                    <mxGeometry x="918.75" y="1173" width="67" height="52" as="geometry"/>
                </mxCell>
                <mxCell id="138" value="" style="aspect=fixed;html=1;points=[];align=center;image;fontSize=12;image=img/lib/azure2/compute/App_Services.svg;shadow=0;fillColor=none;" parent="1" vertex="1">
                    <mxGeometry x="920.25" y="1298.5" width="64" height="64" as="geometry"/>
                </mxCell>
                <mxCell id="139" value="" style="image;image=img/lib/atlassian/Jira_Service_Desk_Logo.svg;shadow=0;fillColor=none;" parent="1" vertex="1">
                    <mxGeometry x="916.75" y="1413" width="59" height="76" as="geometry"/>
                </mxCell>
                <mxCell id="140" value="" style="shape=image;verticalLabelPosition=bottom;labelBackgroundColor=#ffffff;verticalAlign=top;aspect=fixed;imageAspect=0;image=https://www.pngfind.com/pngs/m/618-6187399_servicenow-logo-png-service-now-logo-png-transparent.png;" parent="1" vertex="1">
                    <mxGeometry x="897.75" y="1535.5" width="133.71" height="27" as="geometry"/>
                </mxCell>
                <mxCell id="141" value="" style="whiteSpace=wrap;html=1;shadow=0;fillColor=none;" parent="1" vertex="1">
                    <mxGeometry x="854.5" y="1029" width="200" height="603" as="geometry"/>
                </mxCell>
                <mxCell id="183" style="edgeStyle=none;html=1;" parent="1" source="142" target="167" edge="1">
                    <mxGeometry relative="1" as="geometry"/>
                </mxCell>
                <mxCell id="142" value="" style="aspect=fixed;html=1;points=[];align=center;image;fontSize=12;image=img/lib/azure2/management_governance/Alerts.svg;shadow=0;fillColor=none;" parent="1" vertex="1">
                    <mxGeometry x="511.75" y="1377" width="67" height="56.00000000000001" as="geometry"/>
                </mxCell>
                <mxCell id="176" style="edgeStyle=none;html=1;" parent="1" source="143" target="165" edge="1">
                    <mxGeometry relative="1" as="geometry"/>
                </mxCell>
                <mxCell id="143" value="" style="aspect=fixed;html=1;points=[];align=center;image;fontSize=12;image=img/lib/azure2/management_governance/Alerts.svg;shadow=0;fillColor=none;" parent="1" vertex="1">
                    <mxGeometry x="508.75" y="1043" width="67" height="56.00000000000001" as="geometry"/>
                </mxCell>
                <mxCell id="150" style="edgeStyle=none;html=1;entryX=0.059;entryY=0.667;entryDx=0;entryDy=0;entryPerimeter=0;" parent="1" source="145" target="9" edge="1">
                    <mxGeometry relative="1" as="geometry"/>
                </mxCell>
                <mxCell id="145" value="" style="aspect=fixed;html=1;points=[];align=center;image;fontSize=12;image=img/lib/azure2/management_governance/Alerts.svg;shadow=0;fillColor=none;" parent="1" vertex="1">
                    <mxGeometry x="521.25" y="298" width="67" height="56.00000000000001" as="geometry"/>
                </mxCell>
                <mxCell id="169" style="edgeStyle=none;html=1;" parent="1" source="148" target="145" edge="1">
                    <mxGeometry relative="1" as="geometry"/>
                </mxCell>
                <mxCell id="148" value="" style="aspect=fixed;html=1;points=[];align=center;image;fontSize=12;image=img/lib/azure2/analytics/Log_Analytics_Workspaces.svg;" parent="1" vertex="1">
                    <mxGeometry x="524.25" y="158" width="64" height="64" as="geometry"/>
                </mxCell>
                <mxCell id="177" style="edgeStyle=none;html=1;entryX=0.034;entryY=0.521;entryDx=0;entryDy=0;entryPerimeter=0;" parent="1" source="149" target="166" edge="1">
                    <mxGeometry relative="1" as="geometry"/>
                </mxCell>
                <mxCell id="149" value="" style="aspect=fixed;html=1;points=[];align=center;image;fontSize=12;image=img/lib/azure2/management_governance/Alerts.svg;shadow=0;fillColor=none;" parent="1" vertex="1">
                    <mxGeometry x="511.75" y="1203" width="67" height="56.00000000000001" as="geometry"/>
                </mxCell>
                <mxCell id="152" value="" style="whiteSpace=wrap;html=1;shadow=0;fillColor=none;" parent="1" vertex="1">
                    <mxGeometry x="187.75" y="122.5" width="110" height="99.5" as="geometry"/>
                </mxCell>
                <mxCell id="153" value="" style="whiteSpace=wrap;html=1;shadow=0;fillColor=none;" parent="1" vertex="1">
                    <mxGeometry x="187.75" y="285.75" width="110" height="99.5" as="geometry"/>
                </mxCell>
                <mxCell id="154" value="" style="whiteSpace=wrap;html=1;shadow=0;fillColor=none;" parent="1" vertex="1">
                    <mxGeometry x="187.75" y="442.75" width="110" height="99.5" as="geometry"/>
                </mxCell>
                <mxCell id="157" value="Tenant 3 RG" style="text;html=1;align=center;verticalAlign=middle;resizable=0;points=[];autosize=1;strokeColor=none;fillColor=none;" parent="1" vertex="1">
                    <mxGeometry x="189.75" y="548" width="80" height="20" as="geometry"/>
                </mxCell>
                <mxCell id="158" value="Tenant 2 RG" style="text;html=1;align=center;verticalAlign=middle;resizable=0;points=[];autosize=1;strokeColor=none;fillColor=none;" parent="1" vertex="1">
                    <mxGeometry x="187.75" y="385.25" width="80" height="20" as="geometry"/>
                </mxCell>
                <mxCell id="159" value="Tenant 1 RG" style="text;html=1;align=center;verticalAlign=middle;resizable=0;points=[];autosize=1;strokeColor=none;fillColor=none;" parent="1" vertex="1">
                    <mxGeometry x="187.75" y="228" width="80" height="20" as="geometry"/>
                </mxCell>
                <mxCell id="161" value="" style="whiteSpace=wrap;html=1;shadow=0;fillColor=none;" parent="1" vertex="1">
                    <mxGeometry x="176.75" y="1033.25" width="110" height="99.5" as="geometry"/>
                </mxCell>
                <mxCell id="184" style="edgeStyle=none;html=1;entryX=0.073;entryY=0.72;entryDx=0;entryDy=0;entryPerimeter=0;" parent="1" source="163" target="149" edge="1">
                    <mxGeometry relative="1" as="geometry">
                        <mxPoint x="450" y="1245" as="targetPoint"/>
                    </mxGeometry>
                </mxCell>
                <mxCell id="163" value="" style="whiteSpace=wrap;html=1;shadow=0;fillColor=none;" parent="1" vertex="1">
                    <mxGeometry x="176.75" y="1194.75" width="110" height="99.5" as="geometry"/>
                </mxCell>
                <mxCell id="164" value="" style="whiteSpace=wrap;html=1;shadow=0;fillColor=none;" parent="1" vertex="1">
                    <mxGeometry x="176.75" y="1351.75" width="110" height="99.5" as="geometry"/>
                </mxCell>
                <mxCell id="179" style="edgeStyle=none;html=1;entryX=-0.006;entryY=0.07;entryDx=0;entryDy=0;entryPerimeter=0;" parent="1" source="165" target="141" edge="1">
                    <mxGeometry relative="1" as="geometry"/>
                </mxCell>
                <mxCell id="165" value="" style="aspect=fixed;html=1;points=[];align=center;image;fontSize=12;image=img/lib/azure2/management_governance/My_Customers.svg;shadow=0;fillColor=none;" parent="1" vertex="1">
                    <mxGeometry x="665" y="1043" width="69" height="56.00000000000001" as="geometry"/>
                </mxCell>
                <mxCell id="180" style="edgeStyle=none;html=1;entryX=-0.016;entryY=0.329;entryDx=0;entryDy=0;entryPerimeter=0;" parent="1" source="166" target="141" edge="1">
                    <mxGeometry relative="1" as="geometry">
                        <mxPoint x="850" y="1270" as="targetPoint"/>
                    </mxGeometry>
                </mxCell>
                <mxCell id="166" value="" style="aspect=fixed;html=1;points=[];align=center;image;fontSize=12;image=img/lib/azure2/management_governance/My_Customers.svg;shadow=0;fillColor=none;" parent="1" vertex="1">
                    <mxGeometry x="665" y="1201.5" width="69" height="56.00000000000001" as="geometry"/>
                </mxCell>
                <mxCell id="182" style="edgeStyle=none;html=1;entryX=-0.002;entryY=0.625;entryDx=0;entryDy=0;entryPerimeter=0;" parent="1" source="167" target="141" edge="1">
                    <mxGeometry relative="1" as="geometry"/>
                </mxCell>
                <mxCell id="167" value="" style="aspect=fixed;html=1;points=[];align=center;image;fontSize=12;image=img/lib/azure2/management_governance/My_Customers.svg;shadow=0;fillColor=none;" parent="1" vertex="1">
                    <mxGeometry x="651.75" y="1377" width="69" height="56.00000000000001" as="geometry"/>
                </mxCell>
                <mxCell id="171" value="Broadcast workflow" style="text;html=1;align=center;verticalAlign=middle;resizable=0;points=[];autosize=1;strokeColor=none;fillColor=none;" parent="1" vertex="1">
                    <mxGeometry x="697.75" y="238" width="120" height="20" as="geometry"/>
                </mxCell>
                <mxCell id="172" value="Api Catalog Reference Data&lt;br&gt;" style="text;html=1;align=center;verticalAlign=middle;resizable=0;points=[];autosize=1;strokeColor=none;fillColor=none;" parent="1" vertex="1">
                    <mxGeometry x="697.75" y="798" width="160" height="20" as="geometry"/>
                </mxCell>
                <mxCell id="185" value="" style="aspect=fixed;html=1;points=[];align=center;image;fontSize=12;image=img/lib/azure2/general/Resource_Groups.svg;shadow=0;fillColor=none;" parent="1" vertex="1">
                    <mxGeometry x="284.5" y="110" width="25.5" height="24" as="geometry"/>
                </mxCell>
                <mxCell id="186" value="" style="aspect=fixed;html=1;points=[];align=center;image;fontSize=12;image=img/lib/azure2/general/Resource_Groups.svg;shadow=0;fillColor=none;" parent="1" vertex="1">
                    <mxGeometry x="284.5" y="274" width="25.5" height="24" as="geometry"/>
                </mxCell>
                <mxCell id="187" value="" style="aspect=fixed;html=1;points=[];align=center;image;fontSize=12;image=img/lib/azure2/general/Resource_Groups.svg;shadow=0;fillColor=none;" parent="1" vertex="1">
                    <mxGeometry x="281.75" y="437" width="25.5" height="24" as="geometry"/>
                </mxCell>
                <mxCell id="189" style="edgeStyle=none;html=1;" parent="1" source="188" edge="1">
                    <mxGeometry relative="1" as="geometry">
                        <mxPoint x="542.25" y="1040" as="targetPoint"/>
                    </mxGeometry>
                </mxCell>
                <mxCell id="188" value="" style="aspect=fixed;html=1;points=[];align=center;image;fontSize=12;image=img/lib/azure2/analytics/Log_Analytics_Workspaces.svg;" parent="1" vertex="1">
                    <mxGeometry x="510.25" y="910" width="64" height="64" as="geometry"/>
                </mxCell>
                <mxCell id="198" style="edgeStyle=none;html=1;" parent="1" source="190" edge="1">
                    <mxGeometry relative="1" as="geometry">
                        <mxPoint x="517.75" y="348" as="targetPoint"/>
                    </mxGeometry>
                </mxCell>
                <mxCell id="190" value="" style="whiteSpace=wrap;html=1;shadow=0;fillColor=none;" parent="1" vertex="1">
                    <mxGeometry x="184.75" y="638.5" width="110" height="99.5" as="geometry"/>
                </mxCell>
                <mxCell id="192" value="" style="shape=waypoint;sketch=0;size=6;pointerEvents=1;points=[];fillColor=none;resizable=0;rotatable=0;perimeter=centerPerimeter;snapToPoint=1;shadow=0;" parent="1" vertex="1">
                    <mxGeometry x="219.75" y="588" width="40" height="40" as="geometry"/>
                </mxCell>
                <mxCell id="193" value="" style="shape=waypoint;sketch=0;size=6;pointerEvents=1;points=[];fillColor=none;resizable=0;rotatable=0;perimeter=centerPerimeter;snapToPoint=1;shadow=0;" parent="1" vertex="1">
                    <mxGeometry x="219.5" y="580" width="40" height="40" as="geometry"/>
                </mxCell>
                <mxCell id="194" value="" style="shape=waypoint;sketch=0;size=6;pointerEvents=1;points=[];fillColor=none;resizable=0;rotatable=0;perimeter=centerPerimeter;snapToPoint=1;shadow=0;" parent="1" vertex="1">
                    <mxGeometry x="219.75" y="558" width="40" height="40" as="geometry"/>
                </mxCell>
                <mxCell id="195" value="" style="shape=waypoint;sketch=0;size=6;pointerEvents=1;points=[];fillColor=none;resizable=0;rotatable=0;perimeter=centerPerimeter;snapToPoint=1;shadow=0;" parent="1" vertex="1">
                    <mxGeometry x="219.5" y="568" width="40" height="40" as="geometry"/>
                </mxCell>
                <mxCell id="196" value="Tenant n RG" style="text;html=1;align=center;verticalAlign=middle;resizable=0;points=[];autosize=1;strokeColor=none;fillColor=none;" parent="1" vertex="1">
                    <mxGeometry x="177.75" y="748" width="80" height="20" as="geometry"/>
                </mxCell>
                <mxCell id="197" value="" style="aspect=fixed;html=1;points=[];align=center;image;fontSize=12;image=img/lib/azure2/management_governance/Application_Insights.svg;shadow=0;fillColor=none;" parent="1" vertex="1">
                    <mxGeometry x="213.75" y="656.75" width="44" height="63" as="geometry"/>
                </mxCell>
                <mxCell id="207" style="edgeStyle=none;html=1;" parent="1" source="199" edge="1">
                    <mxGeometry relative="1" as="geometry">
                        <mxPoint x="510" y="1590.25" as="targetPoint"/>
                    </mxGeometry>
                </mxCell>
                <mxCell id="199" value="" style="whiteSpace=wrap;html=1;shadow=0;fillColor=none;" parent="1" vertex="1">
                    <mxGeometry x="175" y="1540.5" width="110" height="99.5" as="geometry"/>
                </mxCell>
                <mxCell id="200" value="" style="shape=waypoint;sketch=0;size=6;pointerEvents=1;points=[];fillColor=none;resizable=0;rotatable=0;perimeter=centerPerimeter;snapToPoint=1;shadow=0;" parent="1" vertex="1">
                    <mxGeometry x="210" y="1490" width="40" height="40" as="geometry"/>
                </mxCell>
                <mxCell id="201" value="" style="shape=waypoint;sketch=0;size=6;pointerEvents=1;points=[];fillColor=none;resizable=0;rotatable=0;perimeter=centerPerimeter;snapToPoint=1;shadow=0;" parent="1" vertex="1">
                    <mxGeometry x="209.75" y="1482" width="40" height="40" as="geometry"/>
                </mxCell>
                <mxCell id="202" value="" style="shape=waypoint;sketch=0;size=6;pointerEvents=1;points=[];fillColor=none;resizable=0;rotatable=0;perimeter=centerPerimeter;snapToPoint=1;shadow=0;" parent="1" vertex="1">
                    <mxGeometry x="209.75" y="1470" width="40" height="40" as="geometry"/>
                </mxCell>
                <mxCell id="203" value="" style="aspect=fixed;html=1;points=[];align=center;image;fontSize=12;image=img/lib/azure2/management_governance/Application_Insights.svg;shadow=0;fillColor=none;" parent="1" vertex="1">
                    <mxGeometry x="204" y="1558.75" width="44" height="63" as="geometry"/>
                </mxCell>
                <mxCell id="210" value="" style="edgeStyle=none;html=1;" parent="1" source="206" target="208" edge="1">
                    <mxGeometry relative="1" as="geometry">
                        <Array as="points">
                            <mxPoint x="660" y="1608"/>
                        </Array>
                    </mxGeometry>
                </mxCell>
                <mxCell id="206" value="" style="aspect=fixed;html=1;points=[];align=center;image;fontSize=12;image=img/lib/azure2/management_governance/Alerts.svg;shadow=0;fillColor=none;" parent="1" vertex="1">
                    <mxGeometry x="511.75" y="1580" width="67" height="56.00000000000001" as="geometry"/>
                </mxCell>
                <mxCell id="209" style="edgeStyle=none;html=1;entryX=0.014;entryY=0.931;entryDx=0;entryDy=0;entryPerimeter=0;" parent="1" source="208" target="141" edge="1">
                    <mxGeometry relative="1" as="geometry"/>
                </mxCell>
                <mxCell id="208" value="" style="aspect=fixed;html=1;points=[];align=center;image;fontSize=12;image=img/lib/azure2/management_governance/My_Customers.svg;shadow=0;fillColor=none;" parent="1" vertex="1">
                    <mxGeometry x="665" y="1562.5" width="69" height="56.00000000000001" as="geometry"/>
                </mxCell>
                <mxCell id="211" value="&lt;font style=&quot;font-size: 24px&quot;&gt;Multi-Resource Alert&amp;nbsp;&lt;/font&gt;" style="text;html=1;align=center;verticalAlign=middle;resizable=0;points=[];autosize=1;strokeColor=none;fillColor=none;" parent="1" vertex="1">
                    <mxGeometry x="41.75" y="40" width="240" height="20" as="geometry"/>
                </mxCell>
                <mxCell id="212" value="&lt;font style=&quot;font-size: 24px&quot;&gt;Single Resource Alert&amp;nbsp;&lt;/font&gt;" style="text;html=1;align=center;verticalAlign=middle;resizable=0;points=[];autosize=1;strokeColor=none;fillColor=none;" parent="1" vertex="1">
                    <mxGeometry x="44.75" y="860" width="250" height="20" as="geometry"/>
                </mxCell>
                <mxCell id="213" value="" style="aspect=fixed;html=1;points=[];align=center;image;fontSize=12;image=img/lib/azure2/general/Resource_Groups.svg;shadow=0;fillColor=none;" parent="1" vertex="1">
                    <mxGeometry x="284.5" y="629.5" width="25.5" height="24" as="geometry"/>
                </mxCell>
                <mxCell id="214" value="" style="aspect=fixed;html=1;points=[];align=center;image;fontSize=12;image=img/lib/azure2/general/Resource_Groups.svg;shadow=0;fillColor=none;" parent="1" vertex="1">
                    <mxGeometry x="272.25" y="1029" width="25.5" height="24" as="geometry"/>
                </mxCell>
                <mxCell id="215" value="" style="aspect=fixed;html=1;points=[];align=center;image;fontSize=12;image=img/lib/azure2/general/Resource_Groups.svg;shadow=0;fillColor=none;" parent="1" vertex="1">
                    <mxGeometry x="272.25" y="1187" width="25.5" height="24" as="geometry"/>
                </mxCell>
                <mxCell id="216" value="" style="aspect=fixed;html=1;points=[];align=center;image;fontSize=12;image=img/lib/azure2/general/Resource_Groups.svg;shadow=0;fillColor=none;" parent="1" vertex="1">
                    <mxGeometry x="272.25" y="1338.5" width="25.5" height="24" as="geometry"/>
                </mxCell>
                <mxCell id="217" value="" style="aspect=fixed;html=1;points=[];align=center;image;fontSize=12;image=img/lib/azure2/general/Resource_Groups.svg;shadow=0;fillColor=none;" parent="1" vertex="1">
                    <mxGeometry x="269.75" y="1534.75" width="25.5" height="24" as="geometry"/>
                </mxCell>
                <mxCell id="219" value="Tenant 1 RG" style="text;html=1;align=center;verticalAlign=middle;resizable=0;points=[];autosize=1;strokeColor=none;fillColor=none;" parent="1" vertex="1">
                    <mxGeometry x="176.75" y="1140" width="80" height="20" as="geometry"/>
                </mxCell>
                <mxCell id="220" value="Tenant 2 RG" style="text;html=1;align=center;verticalAlign=middle;resizable=0;points=[];autosize=1;strokeColor=none;fillColor=none;" parent="1" vertex="1">
                    <mxGeometry x="179.75" y="1298.5" width="80" height="20" as="geometry"/>
                </mxCell>
                <mxCell id="221" value="Tenant 3 RG" style="text;html=1;align=center;verticalAlign=middle;resizable=0;points=[];autosize=1;strokeColor=none;fillColor=none;" parent="1" vertex="1">
                    <mxGeometry x="190" y="1451.25" width="80" height="20" as="geometry"/>
                </mxCell>
                <mxCell id="222" value="Tenant n RG" style="text;html=1;align=center;verticalAlign=middle;resizable=0;points=[];autosize=1;strokeColor=none;fillColor=none;" parent="1" vertex="1">
                    <mxGeometry x="181.75" y="1640" width="80" height="20" as="geometry"/>
                </mxCell>
                <mxCell id="224" value="&lt;span style=&quot;color: rgba(0 , 0 , 0 , 0) ; font-family: monospace ; font-size: 0px&quot;&gt;%3CmxGraphModel%3E%3Croot%3E%3CmxCell%20id%3D%220%22%2F%3E%3CmxCell%20id%3D%221%22%20parent%3D%220%22%2F%3E%3CmxCell%20id%3D%222%22%20value%3D%22Tenant%201%20RG%22%20style%3D%22text%3Bhtml%3D1%3Balign%3Dcenter%3BverticalAlign%3Dmiddle%3Bresizable%3D0%3Bpoints%3D%5B%5D%3Bautosize%3D1%3BstrokeColor%3Dnone%3BfillColor%3Dnone%3B%22%20vertex%3D%221%22%20parent%3D%221%22%3E%3CmxGeometry%20x%3D%22176.75%22%20y%3D%221140%22%20width%3D%2280%22%20height%3D%2220%22%20as%3D%22geometry%22%2F%3E%3C%2FmxCell%3E%3C%2Froot%3E%3C%2FmxGraphModel%3E&lt;/span&gt;" style="text;html=1;align=center;verticalAlign=middle;resizable=0;points=[];autosize=1;strokeColor=none;fillColor=none;fontSize=24;" parent="1" vertex="1">
                    <mxGeometry x="510" y="1090" width="20" height="40" as="geometry"/>
                </mxCell>
                <mxCell id="226" value="Tenant 1 Alert" style="text;html=1;align=center;verticalAlign=middle;resizable=0;points=[];autosize=1;strokeColor=none;fillColor=none;" parent="1" vertex="1">
                    <mxGeometry x="489.25" y="1110" width="90" height="20" as="geometry"/>
                </mxCell>
                <mxCell id="227" value="Tenant 1 Action Group" style="text;html=1;align=center;verticalAlign=middle;resizable=0;points=[];autosize=1;strokeColor=none;fillColor=none;" parent="1" vertex="1">
                    <mxGeometry x="629" y="1110" width="130" height="20" as="geometry"/>
                </mxCell>
            </root>
        </mxGraphModel>
    </diagram>
</mxfile>